<?xml version="1.0" standalone="no"?>
<!DOCTYPE svg PUBLIC "-//W3C//DTD SVG 20010904//EN"
 "http://www.w3.org/TR/2001/REC-SVG-20010904/DTD/svg10.dtd">
<svg version="1.0" xmlns="http://www.w3.org/2000/svg"
 width="261.000000pt" height="261.000000pt" viewBox="0 0 261.000000 261.000000"
 preserveAspectRatio="xMidYMid meet">
<metadata>
Created by potrace 1.11, written by Peter Selinger 2001-2013
</metadata>
<g transform="translate(0.000000,261.000000) scale(0.100000,-0.100000)"
fill="#000000" stroke="none">
<path d="M1199 2606 c-2 -2 -29 -6 -59 -10 -30 -3 -66 -8 -80 -11 -14 -3 -38
-8 -54 -10 -16 -3 -36 -10 -45 -14 -9 -5 -43 -16 -76 -24 -81 -21 -264 -116
-355 -185 -90 -69 -244 -221 -285 -282 -16 -25 -32 -47 -35 -50 -3 -3 -29 -50
-57 -106 -55 -105 -117 -264 -127 -324 -3 -19 -8 -46 -12 -60 -12 -50 -12
-400 1 -458 15 -71 55 -204 65 -217 5 -5 10 -19 12 -30 5 -33 97 -206 143
-270 52 -72 228 -249 308 -308 32 -24 93 -61 135 -82 42 -20 108 -53 145 -71
38 -19 83 -34 101 -34 18 0 36 -4 41 -9 11 -11 48 -19 125 -26 30 -3 85 -10
122 -16 59 -9 153 -7 228 6 14 2 45 7 70 10 25 3 70 12 100 20 30 8 64 15 74
15 11 0 57 18 102 40 46 22 85 40 88 40 10 0 181 104 211 128 124 101 294 288
329 364 10 20 26 44 37 54 10 9 19 26 19 37 0 10 15 51 34 90 18 40 37 88 41
107 4 19 13 54 21 78 21 63 28 148 29 312 0 162 -9 251 -30 314 -8 23 -16 51
-18 62 -6 28 -26 77 -48 121 -11 21 -27 58 -36 83 -12 36 -58 112 -106 175
-77 103 -288 308 -337 327 -14 5 -26 8 -26 6 -1 -2 -10 5 -21 14 -19 18 -203
111 -238 121 -11 4 -31 8 -45 11 -14 2 -43 11 -66 19 -22 8 -74 20 -115 27
-74 12 -302 24 -310 16z"/>
</g>
</svg>
